<svg xmlns="http://www.w3.org/2000/svg" viewBox="0 0 75 75" shape-rendering="crispEdges"><path stroke="#141210" d="M1 1.5h7m2 0h1m1 0h4m3 0h2m2 0h1m2 0h2m1 0h2m1 0h4m2 0h2m1 0h4m1 0h2m2 0h1m2 0h1m1 0h1m2 0h1m2 0h3m1 0h1m1 0h7M1 2.5h1m5 0h1m3 0h2m2 0h1m1 0h1m2 0h3m3 0h2m1 0h6m2 0h4m1 0h1m1 0h3m4 0h1m4 0h2m5 0h1m3 0h1m5 0h1M1 3.5h1m1 0h3m1 0h1m1 0h1m2 0h4m1 0h1m2 0h3m1 0h1m1 0h2m1 0h1m2 0h1m2 0h2m3 0h3m1 0h3m2 0h2m1 0h1m2 0h1m1 0h3m7 0h1m1 0h3m1 0h1M1 4.5h1m1 0h3m1 0h1m1 0h3m3 0h2m2 0h1m1 0h3m1 0h1m1 0h2m1 0h2m1 0h2m1 0h4m4 0h3m1 0h3m2 0h6m2 0h1m1 0h2m2 0h1m1 0h3m1 0h1M1 5.5h1m1 0h3m1 0h1m4 0h3m2 0h1m2 0h1m1 0h1m1 0h6m1 0h1m2 0h2m1 0h1m2 0h2m3 0h7m1 0h4m1 0h1m2 0h1m2 0h2m1 0h1m1 0h3m1 0h1M1 6.5h1m5 0h1m2 0h1m1 0h6m1 0h7m3 0h1m2 0h1m1 0h1m1 0h1m6 0h3m3 0h3m1 0h2m2 0h1m2 0h2m1 0h1m3 0h1m5 0h1M1 7.5h7m1 0h1m1 0h1m1 0h1m1 0h1m1 0h1m1 0h1m1 0h1m1 0h1m1 0h1m1 0h1m1 0h1m1 0h1m1 0h1m1 0h1m1 0h1m1 0h1m1 0h1m1 0h1m1 0h1m1 0h1m1 0h1m1 0h1m1 0h1m1 0h1m1 0h1m1 0h1m1 0h1m1 0h1m1 0h1m1 0h7M10 8.5h1m5 0h4m2 0h2m1 0h1m3 0h1m4 0h3m1 0h3m1 0h2m1 0h1m3 0h2m1 0h3m4 0h1m2 0h2m1 0h1M4 9.5h2m1 0h2m1 0h2m1 0h1m1 0h1m2 0h3m2 0h9m2 0h1m5 0h4m1 0h5m2 0h1m1 0h1m8 0h1m1 0h1m4 0h2M2 10.5h2m1 0h2m2 0h1m2 0h1m1 0h2m3 0h4m1 0h3m4 0h3m2 0h1m2 0h1m2 0h1m2 0h2m1 0h2m2 0h1m3 0h1m1 0h3m2 0h1m2 0h1m2 0h1m1 0h3M2 11.5h1m2 0h8m4 0h3m1 0h2m7 0h1m2 0h1m1 0h3m3 0h2m1 0h1m1 0h1m1 0h5m2 0h1m3 0h2m4 0h3m1 0h2m2 0h1M1 12.5h1m1 0h4m4 0h1m1 0h1m2 0h1m1 0h1m7 0h3m2 0h2m1 0h4m4 0h1m3 0h1m2 0h1m2 0h1m2 0h2m6 0h1m2 0h1m4 0h2M4 13.5h1m1 0h2m2 0h1m2 0h4m1 0h1m1 0h2m1 0h1m1 0h2m1 0h2m4 0h5m2 0h4m1 0h1m1 0h2m1 0h3m1 0h2m1 0h1m1 0h2m1 0h2m1 0h2m2 0h2m1 0h1M1 14.5h3m1 0h2m3 0h3m5 0h5m1 0h1m1 0h1m4 0h1m2 0h6m3 0h9m1 0h1m6 0h3m6 0h4M1 15.5h1m1 0h1m2 0h2m2 0h1m2 0h1m2 0h4m2 0h3m1 0h2m1 0h5m1 0h1m1 0h3m3 0h1m1 0h9m2 0h2m1 0h1m2 0h1m2 0h2m1 0h1m1 0h1m1 0h1M1 16.5h1m1 0h2m1 0h1m2 0h4m1 0h2m1 0h1m1 0h4m1 0h2m1 0h1m1 0h1m1 0h1m1 0h3m1 0h2m2 0h1m1 0h3m1 0h3m2 0h2m3 0h1m5 0h1m1 0h1m2 0h4M1 17.5h1m3 0h1m1 0h1m3 0h1m1 0h1m2 0h1m3 0h2m1 0h2m1 0h1m1 0h1m2 0h1m5 0h1m3 0h1m4 0h3m1 0h1m1 0h2m2 0h2m1 0h5m2 0h3m1 0h2m1 0h1M1 18.5h1m2 0h1m1 0h1m2 0h2m1 0h1m2 0h3m4 0h4m1 0h1m2 0h1m2 0h1m1 0h1m1 0h1m4 0h1m1 0h1m1 0h1m1 0h1m3 0h2m1 0h3m1 0h1m6 0h1m1 0h1m3 0h2M2 19.5h3m1 0h3m4 0h5m1 0h6m5 0h1m3 0h2m1 0h2m1 0h1m2 0h1m1 0h1m1 0h1m1 0h10m1 0h3m2 0h1m1 0h1m1 0h2m1 0h1M2 20.5h2m5 0h1m4 0h3m3 0h4m1 0h1m2 0h1m3 0h4m1 0h1m1 0h2m1 0h2m1 0h2m3 0h1m1 0h1m3 0h2m1 0h1m1 0h2m3 0h2m1 0h1m1 0h1M2 21.5h1m1 0h1m1 0h2m1 0h1m1 0h1m1 0h1m1 0h1m1 0h2m1 0h1m2 0h3m3 0h1m2 0h1m2 0h2m1 0h2m3 0h2m6 0h2m1 0h4m5 0h2m2 0h3m1 0h3M1 22.5h2m2 0h2m3 0h3m1 0h2m6 0h1m1 0h1m2 0h2m1 0h1m2 0h2m6 0h1m4 0h2m2 0h4m2 0h2m2 0h4m1 0h2m2 0h3m1 0h1M1 23.5h1m1 0h3m1 0h1m2 0h1m2 0h1m2 0h1m1 0h2m5 0h2m1 0h3m3 0h3m3 0h2m1 0h2m2 0h2m2 0h2m1 0h2m1 0h1m2 0h1m1 0h1m2 0h5M1 24.5h1m4 0h1m1 0h1m3 0h3m1 0h2m2 0h1m3 0h4m3 0h1m7 0h5m2 0h3m2 0h5m1 0h1m1 0h2m2 0h1m2 0h1m1 0h1m2 0h2M5 25.5h5m2 0h1m1 0h1m1 0h2m2 0h3m1 0h8m3 0h5m2 0h8m1 0h2m1 0h1m1 0h2m1 0h3m2 0h6m3 0h1M3 26.5h1m1 0h1m3 0h6m2 0h1m2 0h1m2 0h3m3 0h2m1 0h1m2 0h3m3 0h1m2 0h2m3 0h2m1 0h4m3 0h4m1 0h2m3 0h2M3 27.5h3m1 0h1m1 0h3m1 0h1m2 0h2m2 0h1m2 0h3m1 0h1m1 0h2m3 0h12m1 0h1m1 0h2m1 0h1m2 0h3m1 0h1m2 0h1m1 0h2m1 0h1m1 0h1m3 0h1M2 28.5h4m3 0h1m1 0h2m2 0h4m1 0h1m1 0h1m2 0h1m3 0h1m2 0h3m1 0h1m2 0h1m1 0h5m3 0h1m1 0h2m5 0h1m1 0h1m2 0h1m1 0h1m3 0h4M1 29.5h2m2 0h6m1 0h1m1 0h2m1 0h1m5 0h7m8 0h1m2 0h3m1 0h6m6 0h1m1 0h1m1 0h3m1 0h6m1 0h2M2 30.5h1m1 0h3m2 0h2m3 0h1m1 0h2m4 0h1m2 0h3m1 0h3m1 0h4m1 0h1m2 0h1m2 0h1m3 0h1m3 0h1m1 0h1m1 0h1m1 0h1m4 0h4m2 0h3M4 31.5h4m3 0h1m2 0h1m1 0h2m5 0h5m1 0h1m1 0h1m2 0h1m1 0h1m1 0h3m2 0h4m1 0h2m1 0h4m1 0h1m1 0h1m1 0h2m1 0h1m1 0h3m1 0h1m2 0h2M2 32.5h2m1 0h1m3 0h1m5 0h2m1 0h1m2 0h1m3 0h2m2 0h1m1 0h1m1 0h2m1 0h1m1 0h1m3 0h6m2 0h2m4 0h1m2 0h1m2 0h2m2 0h2m1 0h1m2 0h1M1 33.5h2m3 0h2m3 0h3m1 0h1m1 0h1m7 0h1m1 0h2m1 0h4m1 0h5m1 0h7m1 0h1m3 0h4m2 0h1m6 0h1m5 0h2M1 34.5h1m2 0h3m3 0h1m4 0h1m1 0h1m3 0h2m1 0h1m1 0h2m1 0h1m3 0h2m1 0h1m1 0h2m2 0h4m2 0h2m1 0h2m3 0h3m1 0h1m3 0h1m1 0h2m3 0h3M1 35.5h1m5 0h2m1 0h3m1 0h4m1 0h1m1 0h3m1 0h1m2 0h1m1 0h1m5 0h2m3 0h1m1 0h2m2 0h1m4 0h2m1 0h1m2 0h4m1 0h1m1 0h1m1 0h1m1 0h1m1 0h2M2 36.5h2m1 0h2m1 0h1m3 0h2m2 0h3m1 0h2m1 0h4m1 0h3m2 0h1m1 0h2m1 0h1m2 0h1m2 0h1m1 0h2m1 0h1m1 0h1m2 0h4m6 0h4m3 0h2M1 37.5h2m2 0h5m1 0h3m1 0h1m2 0h1m1 0h2m1 0h2m1 0h1m1 0h6m1 0h3m1 0h2m1 0h1m2 0h1m1 0h1m1 0h1m2 0h2m1 0h1m1 0h1m1 0h3m2 0h3m1 0h4m1 0h1M4 38.5h2m2 0h1m1 0h1m1 0h1m4 0h1m4 0h1m2 0h2m1 0h1m1 0h2m1 0h1m1 0h3m1 0h3m1 0h4m4 0h3m9 0h2m1 0h2m2 0h1M2 39.5h2m3 0h1m1 0h5m3 0h1m1 0h2m1 0h1m1 0h11m4 0h2m2 0h1m1 0h3m3 0h6m1 0h1m1 0h1m1 0h5m3 0h1m1 0h1M1 40.5h4m1 0h1m1 0h1m3 0h1m3 0h4m1 0h1m2 0h2m1 0h2m1 0h3m2 0h1m2 0h1m1 0h3m1 0h1m1 0h4m1 0h3m1 0h1m1 0h1m2 0h1m4 0h7M2 41.5h2m3 0h1m5 0h1m2 0h1m1 0h2m2 0h2m4 0h1m1 0h1m1 0h1m4 0h1m1 0h1m2 0h1m1 0h2m1 0h2m1 0h1m1 0h2m1 0h1m4 0h2m3 0h3m1 0h2m2 0h1M1 42.5h2m1 0h1m1 0h1m1 0h1m4 0h1m2 0h2m2 0h3m1 0h2m1 0h1m3 0h2m2 0h2m2 0h2m2 0h4m1 0h2m2 0h5m3 0h2m3 0h1m1 0h1m1 0h4M4 43.5h1m2 0h1m2 0h3m1 0h2m2 0h1m3 0h1m4 0h1m5 0h2m5 0h1m2 0h3m4 0h5m1 0h2m1 0h2m3 0h1m4 0h1M1 44.5h2m1 0h1m1 0h1m1 0h6m3 0h1m2 0h1m1 0h6m3 0h1m3 0h1m1 0h4m3 0h2m1 0h1m1 0h2m6 0h1m2 0h1m1 0h1m3 0h5M1 45.5h1m1 0h1m1 0h6m1 0h2m2 0h1m2 0h1m3 0h1m1 0h6m1 0h1m2 0h5m3 0h7m2 0h1m1 0h1m1 0h2m2 0h3m2 0h9M4 46.5h2m3 0h5m1 0h1m1 0h1m3 0h1m1 0h1m1 0h1m3 0h3m3 0h6m2 0h1m1 0h1m3 0h1m2 0h2m2 0h3m1 0h1m2 0h3m3 0h3M2 47.5h2m1 0h1m1 0h1m1 0h1m3 0h1m1 0h4m1 0h3m1 0h2m1 0h1m1 0h3m1 0h1m1 0h1m1 0h1m1 0h1m1 0h2m1 0h2m1 0h1m1 0h1m1 0h2m4 0h2m1 0h2m1 0h3m1 0h1m1 0h5M2 48.5h2m1 0h1m3 0h1m3 0h2m2 0h1m2 0h2m2 0h2m3 0h2m1 0h1m1 0h3m1 0h1m3 0h1m2 0h1m3 0h1m3 0h2m5 0h1m4 0h1m3 0h2M3 49.5h7m1 0h1m7 0h2m1 0h1m1 0h7m2 0h2m1 0h2m1 0h1m2 0h1m2 0h5m1 0h2m4 0h1m2 0h1m4 0h6m1 0h2M3 50.5h2m4 0h1m2 0h1m1 0h5m1 0h1m2 0h3m1 0h1m1 0h1m1 0h3m1 0h7m1 0h5m2 0h1m1 0h1m3 0h1m2 0h2m4 0h4m1 0h1m2 0h1M1 51.5h2m1 0h5m1 0h2m1 0h6m2 0h2m4 0h7m2 0h2m2 0h5m3 0h1m1 0h1m1 0h2m2 0h1m2 0h1m1 0h2m1 0h2m1 0h4m2 0h1M1 52.5h1m4 0h1m5 0h2m2 0h1m1 0h1m1 0h1m1 0h1m1 0h1m4 0h2m1 0h2m1 0h1m1 0h2m1 0h2m3 0h4m2 0h3m1 0h1m3 0h1m1 0h1m1 0h3m2 0h2m2 0h1M1 53.5h1m1 0h5m1 0h1m3 0h3m1 0h2m1 0h2m4 0h2m1 0h2m4 0h1m2 0h1m2 0h4m1 0h2m1 0h1m1 0h3m2 0h2m1 0h2m1 0h1m1 0h1m2 0h1m1 0h1m2 0h2M3 54.5h1m1 0h2m1 0h2m1 0h3m2 0h2m2 0h10m1 0h4m1 0h1m5 0h5m1 0h1m3 0h1m2 0h2m1 0h2m1 0h2m2 0h1m1 0h2m2 0h2M1 55.5h3m1 0h4m1 0h1m5 0h2m2 0h1m1 0h1m1 0h1m1 0h1m2 0h1m1 0h1m1 0h1m1 0h1m2 0h1m3 0h1m1 0h1m1 0h1m3 0h3m1 0h2m1 0h2m1 0h5m2 0h1m4 0h2M1 56.5h1m2 0h1m1 0h1m1 0h1m1 0h1m1 0h2m1 0h2m2 0h4m2 0h8m5 0h4m1 0h1m5 0h3m1 0h1m3 0h1m1 0h1m1 0h2m1 0h1m1 0h1m2 0h1m2 0h1M1 57.5h1m2 0h1m1 0h2m1 0h3m1 0h1m2 0h2m1 0h2m1 0h2m1 0h1m1 0h2m1 0h3m1 0h1m2 0h1m1 0h1m2 0h1m1 0h3m1 0h2m1 0h4m1 0h1m3 0h8m1 0h5M1 58.5h1m1 0h4m2 0h2m1 0h1m2 0h1m2 0h2m2 0h2m3 0h1m1 0h1m1 0h1m1 0h1m1 0h7m1 0h1m1 0h1m1 0h3m1 0h3m1 0h3m1 0h2m2 0h4m1 0h1m2 0h1m1 0h1M1 59.5h1m1 0h1m1 0h1m1 0h1m6 0h1m2 0h1m1 0h3m2 0h1m2 0h2m3 0h1m1 0h1m2 0h1m1 0h1m1 0h2m1 0h3m1 0h1m2 0h2m3 0h1m1 0h8m1 0h2m1 0h4M1 60.5h3m1 0h1m3 0h1m2 0h1m1 0h1m1 0h1m2 0h2m1 0h2m1 0h1m4 0h1m3 0h1m1 0h1m2 0h1m1 0h2m1 0h4m1 0h1m1 0h2m1 0h1m2 0h1m5 0h2m1 0h1m3 0h2M1 61.5h2m4 0h1m1 0h1m2 0h1m1 0h1m1 0h1m1 0h2m1 0h1m2 0h1m1 0h2m1 0h5m1 0h3m2 0h1m4 0h1m2 0h2m3 0h1m1 0h3m1 0h3m1 0h2m3 0h1m2 0h3M1 62.5h2m7 0h1m2 0h1m2 0h3m1 0h2m2 0h1m3 0h1m4 0h1m3 0h1m2 0h1m2 0h1m2 0h1m2 0h2m2 0h1m1 0h1m3 0h2m1 0h1m2 0h2m2 0h2m2 0h1M1 63.5h2m1 0h1m1 0h3m1 0h3m2 0h1m3 0h4m1 0h2m4 0h1m1 0h4m5 0h1m3 0h6m1 0h1m3 0h1m2 0h1m1 0h1m2 0h2m1 0h1m5 0h1M4 64.5h2m2 0h2m1 0h2m1 0h3m2 0h2m1 0h2m1 0h1m1 0h4m1 0h1m2 0h1m1 0h3m1 0h1m2 0h1m1 0h4m1 0h1m7 0h3m1 0h2m1 0h1m1 0h1m4 0h1M1 65.5h1m3 0h1m1 0h1m1 0h4m1 0h1m3 0h2m1 0h2m2 0h7m2 0h6m2 0h1m1 0h7m1 0h1m2 0h3m1 0h2m1 0h1m1 0h6m2 0h2M9 66.5h2m1 0h2m1 0h3m1 0h1m1 0h1m2 0h2m3 0h2m1 0h1m1 0h1m3 0h1m1 0h2m2 0h2m3 0h9m3 0h1m1 0h1m1 0h1m3 0h4M1 67.5h7m1 0h1m1 0h2m3 0h3m1 0h2m1 0h3m1 0h1m1 0h2m3 0h3m2 0h1m1 0h1m3 0h1m1 0h1m1 0h6m1 0h1m3 0h1m1 0h1m2 0h1m1 0h1m1 0h1m2 0h2M1 68.5h1m5 0h1m4 0h3m1 0h3m4 0h3m3 0h5m1 0h3m1 0h2m4 0h1m3 0h2m1 0h1m3 0h2m1 0h1m1 0h3m1 0h1m3 0h2m1 0h2M1 69.5h1m1 0h3m1 0h1m1 0h1m1 0h1m3 0h2m2 0h1m2 0h9m1 0h2m1 0h1m2 0h1m1 0h10m1 0h1m2 0h3m4 0h9m1 0h1m1 0h1M1 70.5h1m1 0h3m1 0h1m1 0h1m1 0h2m2 0h1m2 0h1m1 0h2m1 0h1m1 0h1m2 0h3m1 0h1m1 0h3m2 0h1m1 0h2m2 0h2m2 0h4m3 0h1m3 0h1m1 0h3m2 0h1m3 0h1m1 0h1M1 71.5h1m1 0h3m1 0h1m2 0h2m5 0h2m1 0h3m2 0h2m3 0h3m1 0h2m1 0h3m3 0h3m1 0h1m1 0h1m2 0h2m1 0h1m1 0h1m2 0h1m2 0h2m1 0h1m1 0h6M1 72.5h1m5 0h1m3 0h2m1 0h1m1 0h1m3 0h2m2 0h1m1 0h1m1 0h2m4 0h4m1 0h2m1 0h1m1 0h3m1 0h1m1 0h3m4 0h1m3 0h1m1 0h1m3 0h1m1 0h5M1 73.5h7m3 0h1m2 0h1m3 0h1m2 0h2m3 0h1m2 0h1m2 0h2m1 0h1m2 0h1m2 0h4m1 0h2m1 0h1m2 0h1m3 0h1m3 0h1m3 0h2m5 0h1m1 0h1"/></svg>
